
<svg xmlns="http://www.w3.org/2000/svg" width="205" height="59" viewBox="0 0 205 59" fill="none" role="img" aria-labelledby="aaws4ab3kyqi6yczw8xsjlweza4vqmal" class="hidden lg:block h-15 w-auto text-gray-800"><title id="aaws4ab3kyqi6yczw8xsjlweza4vqmal">Odin Logo</title>
  <path fill-rule="evenodd" clip-rule="evenodd" d="M8.68945 34.7331L13.1482 19.2902H30.9833L35.442 34.7331H8.68945Z" fill="#EED9C3"></path>
  <ellipse cx="27.7849" cy="27.1223" rx="1.26005" ry="1.24284" fill="#353535"></ellipse>
  <path fill-rule="evenodd" clip-rule="evenodd" d="M19.446 25.7092C19.446 25.2752 19.0891 24.9233 18.6493 24.9233C17.638 24.9233 15.9034 24.9233 14.8922 24.9233C14.4523 24.9233 14.0955 25.2752 14.0955 25.7092C14.0955 26.3856 14.0955 27.3716 14.0955 28.1426C14.0955 28.7935 14.6305 29.3212 15.2902 29.3212C15.6995 29.3212 16.1763 29.3212 16.6578 29.3212C17.3973 29.3212 18.1062 29.0314 18.6295 28.5155C19.1522 28.0001 19.446 27.3004 19.446 26.5712C19.446 26.2585 19.446 25.9621 19.446 25.7092Z" fill="#A78347"></path>
  <path fill-rule="evenodd" clip-rule="evenodd" d="M35.0004 4.5308L43.8517 0L39.0002 18L35.0002 22L35.0004 4.5308Z" fill="#E3B261"></path>
  <path fill-rule="evenodd" clip-rule="evenodd" d="M8.8514 4.5308L0.000132561 0L4.85156 18L8.85156 22L8.8514 4.5308Z" fill="#E3B261"></path>
  <path fill-rule="evenodd" clip-rule="evenodd" d="M35.442 12.7438C35.442 12.7438 28.7539 8.34589 22.0657 8.34589C15.3776 8.34589 8.68945 12.7438 8.68945 12.7438V25.9373L10.473 29.4556C11.7527 24.5929 17.5445 22.5672 21.576 25.5723L22.0657 25.9373L22.5554 25.5723C26.587 22.5672 32.3788 24.5929 33.6585 29.4556L35.442 25.9373V12.7438Z" fill="#E3B261"></path>
  <path fill-rule="evenodd" clip-rule="evenodd" d="M17.6068 32.5341L14.0398 53.2041L9.12134 49.6858L13.148 34.7331L17.6068 32.5341Z" fill="#D4D4D4"></path>
  <path fill-rule="evenodd" clip-rule="evenodd" d="M26.5243 32.5341L30.0913 53.2041L35.0098 49.6858L30.9831 34.7331L26.5243 32.5341Z" fill="#D5D5D5"></path>
  <path fill-rule="evenodd" clip-rule="evenodd" d="M8.68933 25.9373L5.12231 39.1309L9.58108 47.9267L13.1481 34.7331L8.68933 25.9373Z" fill="#E6E6E6"></path>
  <path fill-rule="evenodd" clip-rule="evenodd" d="M35.4418 25.9373L39.0088 39.1309L34.55 47.9267L30.983 34.7331L35.4418 25.9373Z" fill="#E6E6E6"></path>
  <path fill-rule="evenodd" clip-rule="evenodd" d="M17.6069 32.5341L13.594 54.0837L22.0656 58.4815L30.5373 54.0837L26.5244 32.5341L22.3983 30.4992L22.0656 30.3352L17.6069 32.5341Z" fill="#E6E6E6"></path>
  <path fill-rule="evenodd" clip-rule="evenodd" d="M23.6636 33.4137H20.5425C20.5425 33.4137 20.5425 33.9348 20.5425 34.514C20.5425 34.9222 20.707 35.3131 20.9995 35.6016C21.292 35.8901 21.6884 36.0524 22.1022 36.0524C22.1026 36.0524 22.1035 36.0524 22.1039 36.0524C22.5177 36.0524 22.9141 35.8901 23.2066 35.6016C23.4991 35.3131 23.6636 34.9222 23.6636 34.514C23.6636 33.9348 23.6636 33.4137 23.6636 33.4137Z" fill="#353535"></path>
</svg>
